<?xml version="1.0" encoding="utf-8"?>
<!-- Generator: Adobe Illustrator 22.0.1, SVG Export Plug-In . SVG Version: 6.00 Build 0)  -->
<svg version="1.1" id="Слой_1" xmlns="http://www.w3.org/2000/svg" xmlns:xlink="http://www.w3.org/1999/xlink" x="0px" y="0px"
	 viewBox="0 0 163 100" style="enable-background:new 0 0 163 100;" xml:space="preserve">
<style type="text/css">
	.st0{fill:#1E1E1E;}
</style>
<g>
	<polygon class="st0" points="54.5,97.6 64.2,97.6 87.5,68.6 87.5,66 82.9,60.5 	"/>
	<polygon class="st0" points="45,23.5 40,31.6 63.8,31.6 87.5,61.1 87.5,47.3 68,23.5 	"/>
	<polygon class="st0" points="38.3,73.3 32.3,66.9 24.5,72.9 13.3,59 45.8,17.6 34.9,5.5 23.6,12.4 4.7,2.6 25.3,20.4 32.3,16.1 
		35.1,19.8 4.7,57.8 24.7,81.8 31.4,74.9 31.3,87.9 46.7,97.6 37.1,85.8 	"/>
	<polygon class="st0" points="22.9,31.2 28.2,23.8 14.5,23.7 3.2,18.2 12.4,31.2 	"/>
	<polygon class="st0" points="31.1,48.1 38.2,44.8 35.9,39.4 30,46.9 	"/>
	<path class="st0" d="M123.2,44.8c-1.8-2-5.7-3.1-11.9-3.1c-0.6,0-1.1,0-1.7,0c-0.5,0-1,0-1.5,0c-6.9,0-11.3,1-13.1,3.1
		c-1.1,1.3-1.9,3.8-2.3,7.6h9.7c0.2-1.8,0.4-3,0.8-3.5c0.6-1,2.6-1.5,6-1.6c3.2,0.1,5.1,0.6,5.8,1.5c0.8,1,1.1,4.4,1.1,10.1
		c0,5.7-0.4,9.1-1.2,10.2c-0.7,1-2.6,1.5-5.7,1.6c-3.2-0.1-5.1-0.6-5.9-1.5c-0.9-1-1.3-3.9-1.3-8.8c0-0.9,0-3.2,0-4h-9.8
		c0,0.7,0,2.9,0,3.6c0,6.8,0.9,11.2,2.7,13.2c1.8,2,5.8,3,12,3c0.6,0,1.1,0,1.7,0c0.5,0,1,0,1.5,0c6.8,0,11.2-1,12.9-3
		c1.8-2,2.7-6.9,2.7-14.7C125.9,51.4,125,46.9,123.2,44.8z"/>
	<polygon class="st0" points="140.7,46.7 137.6,42.1 124.4,42.1 134,56.2 	"/>
	<polygon class="st0" points="149.2,59.3 160.9,42.1 147.7,42.1 143.6,48.1 134.8,61.1 124.8,75.9 138,75.9 142.7,69 147.3,75.9 
		160.5,75.9 	"/>
	<path class="st0" d="M84.1,92.9c-1.1-0.1-1.8-0.2-2-0.3c-0.2-0.1-0.3-0.6-0.3-1.2c0-0.6,0.1-1,0.4-1.1c0.3-0.2,0.9-0.3,1.9-0.3
		c0.8,0,1.3,0.1,1.6,0.3c0.2,0.2,0.3,0.6,0.3,1.3h0.9c0-1-0.2-1.6-0.6-1.9c-0.4-0.3-1.2-0.4-2.4-0.4c-1.2,0-2,0.2-2.4,0.5
		c-0.4,0.3-0.6,0.9-0.6,1.9c0,1.4,0.7,2.1,2.1,2.2l0.9,0l1,0c0.5,0,0.9,0.1,1.1,0.3c0.2,0.2,0.3,0.5,0.3,1c0,0.8-0.1,1.3-0.4,1.4
		c-0.2,0.2-0.9,0.3-2,0.3c-0.9,0-1.5-0.1-1.7-0.3c-0.2-0.2-0.3-0.6-0.3-1.4v-0.2h-0.9l0,0.4c0,0.9,0.2,1.5,0.6,1.8
		c0.4,0.3,1.2,0.5,2.4,0.5c1.4,0,2.3-0.1,2.7-0.4c0.4-0.3,0.6-1,0.6-2c0-0.9-0.2-1.5-0.5-1.8C86.2,93.1,85.4,92.9,84.1,92.9z"/>
	<path class="st0" d="M99,92l-0.3,0.5l-0.2,0.3c0,0.1-0.1,0.2-0.2,0.3h0l-0.2-0.3c-0.1-0.1-0.1-0.2-0.2-0.3L97.6,92l-1.8-2.8h-1.1
		l3,4.8v3.4h0.9V94l3.1-4.8h-1.1L99,92z"/>
	<path class="st0" d="M112.9,92.9c-1.1-0.1-1.8-0.2-2-0.3c-0.2-0.1-0.3-0.6-0.3-1.2c0-0.6,0.1-1,0.4-1.1c0.3-0.2,0.9-0.3,1.9-0.3
		c0.8,0,1.3,0.1,1.6,0.3c0.2,0.2,0.3,0.6,0.3,1.3h0.9c0-1-0.2-1.6-0.6-1.9s-1.2-0.4-2.4-0.4c-1.2,0-2,0.2-2.4,0.5
		c-0.4,0.3-0.6,0.9-0.6,1.9c0,1.4,0.7,2.1,2.1,2.2l0.9,0l1,0c0.5,0,0.9,0.1,1.1,0.3c0.2,0.2,0.3,0.5,0.3,1c0,0.8-0.1,1.3-0.4,1.4
		c-0.2,0.2-0.9,0.3-2,0.3c-0.9,0-1.5-0.1-1.7-0.3c-0.2-0.2-0.3-0.6-0.3-1.4v-0.2h-0.9l0,0.4c0,0.9,0.2,1.5,0.6,1.8
		c0.4,0.3,1.2,0.5,2.4,0.5c1.4,0,2.3-0.1,2.7-0.4c0.4-0.3,0.6-1,0.6-2c0-0.9-0.2-1.5-0.5-1.8C115,93.1,114.1,92.9,112.9,92.9z"/>
	<polygon class="st0" points="123.7,90.1 126.3,90.1 126.3,97.5 127.3,97.5 127.3,90.1 129.9,90.1 129.9,89.2 123.7,89.2 	"/>
	<polygon class="st0" points="137.9,97.5 143.2,97.5 143.2,96.7 138.8,96.7 138.8,93.6 143,93.6 143,92.8 138.8,92.8 138.8,90 
		143.2,90 143.2,89.2 137.9,89.2 	"/>
	<path class="st0" d="M157.1,94.6l-0.4,0.9c0,0.1-0.1,0.2-0.2,0.4l-0.2,0.4h0l-0.2-0.4l-0.2-0.4l-0.3-0.9l-2.2-5.3h-1.6v8.3h0.9
		v-6.6v-0.5l0-0.2l0-0.2h0c0,0.1,0.1,0.1,0.1,0.2l0.1,0.2l0.2,0.4l2.8,6.8h0.9l2.8-6.8l0.2-0.4c0,0,0-0.1,0.1-0.2l0.1-0.2h0l0,0.2
		l0,0.2v0.5v6.6h0.9v-8.3h-1.6L157.1,94.6z"/>
</g>
</svg>
